<svg xmlns="http://www.w3.org/2000/svg" xmlns:xlink="http://www.w3.org/1999/xlink" width="500" zoomAndPan="magnify" viewBox="0 0 375 374.999991" height="500" preserveAspectRatio="xMidYMid meet" version="1.0"><defs><g/><clipPath id="ff804ffb89"><path d="M 67.109375 103.765625 L 132.304688 103.765625 L 132.304688 178.015625 L 67.109375 178.015625 Z M 67.109375 103.765625 " clip-rule="nonzero"/></clipPath></defs><rect x="-37.5" width="450" fill="#ffffff" y="-37.499999" height="449.999989" fill-opacity="1"/><rect x="-37.5" width="450" fill="#ffffff" y="-37.499999" height="449.999989" fill-opacity="1"/><g fill="#ff3131" fill-opacity="1"><g transform="translate(134.997564, 186.574432)"><g><path d="M 4.320312 0 L 18.726562 0 C 19.847656 0 20.808594 -0.960938 20.808594 -2.082031 L 20.808594 -51.222656 C 20.808594 -52.339844 19.847656 -53.300781 18.726562 -53.300781 L 18.246094 -53.300781 C 17.128906 -53.300781 16.167969 -54.261719 16.167969 -55.382812 L 16.167969 -58.902344 C 16.167969 -60.023438 17.128906 -60.984375 18.246094 -60.984375 L 37.296875 -60.984375 C 38.414062 -60.984375 39.375 -61.945312 39.375 -63.066406 L 39.375 -74.109375 C 39.375 -75.230469 38.414062 -76.191406 37.296875 -76.191406 L 27.53125 -76.191406 C 26.410156 -76.191406 25.449219 -75.230469 25.449219 -74.109375 L 25.449219 -70.75 C 25.449219 -69.628906 24.488281 -68.667969 23.371094 -68.667969 L 22.890625 -68.667969 C 21.769531 -68.667969 20.808594 -69.628906 20.808594 -70.75 L 20.808594 -74.109375 C 20.808594 -75.230469 19.847656 -76.191406 18.726562 -76.191406 L 4.320312 -76.191406 C 3.203125 -76.191406 2.242188 -75.230469 2.242188 -74.109375 L 2.242188 -2.082031 C 2.242188 -0.960938 3.203125 0 4.320312 0 Z M 4.320312 0 "/></g></g></g><g fill="#ff3131" fill-opacity="1"><g transform="translate(176.611792, 186.574432)"><g><path d="M 20.808594 -47.699219 L 20.808594 -51.222656 C 20.808594 -52.339844 19.847656 -53.300781 18.726562 -53.300781 L 18.246094 -53.300781 C 17.128906 -53.300781 16.167969 -54.261719 16.167969 -55.382812 L 16.167969 -58.902344 C 16.167969 -60.023438 17.128906 -60.984375 18.246094 -60.984375 L 37.296875 -60.984375 C 38.414062 -60.984375 39.375 -60.023438 39.375 -58.902344 L 39.375 -55.382812 C 39.375 -54.261719 40.335938 -53.300781 41.457031 -53.300781 L 41.9375 -53.300781 C 43.058594 -53.300781 44.019531 -52.339844 44.019531 -51.222656 L 44.019531 -47.699219 C 44.019531 -46.578125 43.058594 -45.617188 41.9375 -45.617188 L 22.890625 -45.617188 C 21.769531 -45.617188 20.808594 -46.578125 20.808594 -47.699219 Z M 18.246094 0 L 55.863281 0 C 56.984375 0 57.945312 -0.960938 57.945312 -2.082031 L 57.945312 -13.125 C 57.945312 -14.246094 56.984375 -15.207031 55.863281 -15.207031 L 22.890625 -15.207031 C 21.769531 -15.207031 20.808594 -16.167969 20.808594 -17.285156 L 20.808594 -20.808594 C 20.808594 -21.929688 19.847656 -22.890625 18.726562 -22.890625 L 18.246094 -22.890625 C 17.128906 -22.890625 16.167969 -23.851562 16.167969 -24.96875 L 16.167969 -28.332031 C 16.167969 -29.453125 17.128906 -30.414062 18.246094 -30.414062 L 55.863281 -30.414062 C 56.984375 -30.414062 57.945312 -31.371094 57.945312 -32.492188 L 57.945312 -58.902344 C 57.945312 -60.023438 56.984375 -60.984375 55.863281 -60.984375 L 55.382812 -60.984375 C 54.261719 -60.984375 53.300781 -61.945312 53.300781 -63.066406 L 53.300781 -66.425781 C 53.300781 -67.546875 52.339844 -68.507812 51.222656 -68.507812 L 46.097656 -68.507812 C 44.976562 -68.507812 44.019531 -69.46875 44.019531 -70.589844 L 44.019531 -74.109375 C 44.019531 -75.230469 43.058594 -76.191406 41.9375 -76.191406 L 18.246094 -76.191406 C 17.128906 -76.191406 16.167969 -75.230469 16.167969 -74.109375 L 16.167969 -70.589844 C 16.167969 -69.46875 15.207031 -68.507812 14.085938 -68.507812 L 8.964844 -68.507812 C 7.84375 -68.507812 6.882812 -67.546875 6.882812 -66.425781 L 6.882812 -63.066406 C 6.882812 -61.945312 5.921875 -60.984375 4.800781 -60.984375 L 4.320312 -60.984375 C 3.203125 -60.984375 2.242188 -60.023438 2.242188 -58.902344 L 2.242188 -17.285156 C 2.242188 -16.167969 3.203125 -15.207031 4.320312 -15.207031 L 4.800781 -15.207031 C 5.921875 -15.207031 6.882812 -14.246094 6.882812 -13.125 L 6.882812 -9.765625 C 6.882812 -8.644531 7.84375 -7.683594 8.964844 -7.683594 L 14.085938 -7.683594 C 15.207031 -7.683594 16.167969 -6.722656 16.167969 -5.601562 L 16.167969 -2.082031 C 16.167969 -0.960938 17.128906 0 18.246094 0 Z M 18.246094 0 "/></g></g></g><g fill="#ff3131" fill-opacity="1"><g transform="translate(236.792376, 186.574432)"><g><path d="M 20.808594 -17.285156 L 20.808594 -51.222656 C 20.808594 -52.339844 19.847656 -53.300781 18.726562 -53.300781 L 18.246094 -53.300781 C 17.128906 -53.300781 16.167969 -54.261719 16.167969 -55.382812 L 16.167969 -58.902344 C 16.167969 -60.023438 17.128906 -60.984375 18.246094 -60.984375 L 37.296875 -60.984375 C 38.414062 -60.984375 39.375 -60.023438 39.375 -58.902344 L 39.375 -24.96875 C 39.375 -23.851562 40.335938 -22.890625 41.457031 -22.890625 L 41.9375 -22.890625 C 43.058594 -22.890625 44.019531 -21.929688 44.019531 -20.808594 L 44.019531 -17.285156 C 44.019531 -16.167969 43.058594 -15.207031 41.9375 -15.207031 L 22.890625 -15.207031 C 21.769531 -15.207031 20.808594 -16.167969 20.808594 -17.285156 Z M 18.246094 0 L 32.652344 0 C 33.773438 0 34.734375 -0.960938 34.734375 -2.082031 L 34.734375 -5.601562 C 34.734375 -6.722656 35.695312 -7.683594 36.816406 -7.683594 L 37.296875 -7.683594 C 38.414062 -7.683594 39.375 -6.722656 39.375 -5.601562 L 39.375 -2.082031 C 39.375 -0.960938 40.335938 0 41.457031 0 L 55.863281 0 C 56.984375 0 57.945312 -0.960938 57.945312 -2.082031 L 57.945312 -104.683594 C 57.945312 -105.804688 56.984375 -106.761719 55.863281 -106.761719 L 41.457031 -106.761719 C 40.335938 -106.761719 39.375 -105.804688 39.375 -104.683594 L 39.375 -70.75 C 39.375 -69.628906 38.414062 -68.667969 37.296875 -68.667969 L 36.816406 -68.667969 C 35.695312 -68.667969 34.734375 -69.628906 34.734375 -70.75 L 34.734375 -74.109375 C 34.734375 -75.230469 33.773438 -76.191406 32.652344 -76.191406 L 18.246094 -76.191406 C 17.128906 -76.191406 16.167969 -75.230469 16.167969 -74.109375 L 16.167969 -70.75 C 16.167969 -69.628906 15.207031 -68.667969 14.085938 -68.667969 L 8.964844 -68.667969 C 7.84375 -68.667969 6.882812 -67.707031 6.882812 -66.585938 L 6.882812 -63.066406 C 6.882812 -61.945312 5.921875 -60.984375 4.800781 -60.984375 L 4.320312 -60.984375 C 3.203125 -60.984375 2.242188 -60.023438 2.242188 -58.902344 L 2.242188 -17.285156 C 2.242188 -16.167969 3.203125 -15.207031 4.320312 -15.207031 L 4.800781 -15.207031 C 5.921875 -15.207031 6.882812 -14.246094 6.882812 -13.125 L 6.882812 -9.765625 C 6.882812 -8.644531 7.84375 -7.683594 8.964844 -7.683594 L 14.085938 -7.683594 C 15.207031 -7.683594 16.167969 -6.722656 16.167969 -5.601562 L 16.167969 -2.082031 C 16.167969 -0.960938 17.128906 0 18.246094 0 Z M 18.246094 0 "/></g></g></g><g fill="#000000" fill-opacity="1"><g transform="translate(88.592525, 281.407878)"><g><path d="M 8.964844 0 L 23.371094 0 C 24.488281 0 25.449219 -0.960938 25.449219 -2.082031 L 25.449219 -51.222656 C 25.449219 -52.339844 24.488281 -53.300781 23.371094 -53.300781 L 22.890625 -53.300781 C 21.769531 -53.300781 20.808594 -54.261719 20.808594 -55.382812 L 20.808594 -58.902344 C 20.808594 -60.023438 21.769531 -60.984375 22.890625 -60.984375 L 41.9375 -60.984375 C 43.058594 -60.984375 44.019531 -61.945312 44.019531 -63.066406 L 44.019531 -74.109375 C 44.019531 -75.230469 43.058594 -76.191406 41.9375 -76.191406 L 32.011719 -76.191406 C 30.890625 -76.191406 29.933594 -75.230469 29.933594 -74.109375 L 29.933594 -70.75 C 29.933594 -69.628906 28.972656 -68.667969 27.851562 -68.667969 L 27.53125 -68.667969 C 26.410156 -68.667969 25.449219 -69.628906 25.449219 -70.75 L 25.449219 -81.792969 C 25.449219 -82.914062 24.488281 -83.875 23.371094 -83.875 L 22.890625 -83.875 C 21.769531 -83.875 20.808594 -84.835938 20.808594 -85.953125 L 20.808594 -89.476562 C 20.808594 -90.597656 21.769531 -91.558594 22.890625 -91.558594 L 41.9375 -91.558594 C 43.058594 -91.558594 44.019531 -92.515625 44.019531 -93.636719 L 44.019531 -104.683594 C 44.019531 -105.804688 43.058594 -106.761719 41.9375 -106.761719 L 22.890625 -106.761719 C 21.769531 -106.761719 20.808594 -105.804688 20.808594 -104.683594 L 20.808594 -101.160156 C 20.808594 -100.039062 19.847656 -99.082031 18.726562 -99.082031 L 13.605469 -99.082031 C 12.484375 -99.082031 11.523438 -98.121094 11.523438 -97 L 11.523438 -93.636719 C 11.523438 -92.515625 10.5625 -91.558594 9.445312 -91.558594 L 8.964844 -91.558594 C 7.84375 -91.558594 6.882812 -90.597656 6.882812 -89.476562 L 6.882812 -78.273438 C 6.882812 -77.152344 5.921875 -76.191406 4.800781 -76.191406 L 4.320312 -76.191406 C 3.203125 -76.191406 2.242188 -75.230469 2.242188 -74.109375 L 2.242188 -63.066406 C 2.242188 -61.945312 3.203125 -60.984375 4.320312 -60.984375 L 4.800781 -60.984375 C 5.921875 -60.984375 6.882812 -60.023438 6.882812 -58.902344 L 6.882812 -2.082031 C 6.882812 -0.960938 7.84375 0 8.964844 0 Z M 8.964844 0 "/></g></g></g><g fill="#ff3131" fill-opacity="1"><g transform="translate(134.858147, 281.407878)"><g><path d="M 4.320312 0 L 18.726562 0 C 19.847656 0 20.808594 -0.960938 20.808594 -2.082031 L 20.808594 -104.683594 C 20.808594 -105.804688 19.847656 -106.761719 18.726562 -106.761719 L 4.320312 -106.761719 C 3.203125 -106.761719 2.242188 -105.804688 2.242188 -104.683594 L 2.242188 -2.082031 C 2.242188 -0.960938 3.203125 0 4.320312 0 Z M 4.320312 0 "/></g></g></g><g fill="#000000" fill-opacity="1"><g transform="translate(157.908927, 281.407878)"><g><path d="M 16.167969 -17.285156 L 16.167969 -28.332031 C 16.167969 -29.453125 17.128906 -30.414062 18.246094 -30.414062 L 41.9375 -30.414062 C 43.058594 -30.414062 44.019531 -29.453125 44.019531 -28.332031 L 44.019531 -24.96875 C 44.019531 -23.851562 44.976562 -22.890625 46.097656 -22.890625 L 46.578125 -22.890625 C 47.699219 -22.890625 48.660156 -21.929688 48.660156 -20.808594 L 48.660156 -17.285156 C 48.660156 -16.167969 47.699219 -15.207031 46.578125 -15.207031 L 18.246094 -15.207031 C 17.128906 -15.207031 16.167969 -16.167969 16.167969 -17.285156 Z M 13.605469 0 L 37.296875 0 C 38.414062 0 39.375 -0.960938 39.375 -2.082031 L 39.375 -5.601562 C 39.375 -6.722656 40.335938 -7.683594 41.457031 -7.683594 L 41.9375 -7.683594 C 43.058594 -7.683594 44.019531 -6.722656 44.019531 -5.601562 L 44.019531 -2.082031 C 44.019531 -0.960938 44.976562 0 46.097656 0 L 55.863281 0 C 56.984375 0 57.945312 -0.960938 57.945312 -2.082031 L 57.945312 -58.902344 C 57.945312 -60.023438 56.984375 -60.984375 55.863281 -60.984375 L 55.382812 -60.984375 C 54.261719 -60.984375 53.300781 -61.945312 53.300781 -63.066406 L 53.300781 -66.585938 C 53.300781 -67.707031 52.339844 -68.667969 51.222656 -68.667969 L 50.742188 -68.667969 C 49.621094 -68.667969 48.660156 -69.628906 48.660156 -70.75 L 48.660156 -74.109375 C 48.660156 -75.230469 47.699219 -76.191406 46.578125 -76.191406 L 4.320312 -76.191406 C 3.203125 -76.191406 2.242188 -75.230469 2.242188 -74.109375 L 2.242188 -63.066406 C 2.242188 -61.945312 3.203125 -60.984375 4.320312 -60.984375 L 46.578125 -60.984375 C 47.699219 -60.984375 48.660156 -60.023438 48.660156 -58.902344 L 48.660156 -55.382812 C 48.660156 -54.261719 47.699219 -53.300781 46.578125 -53.300781 L 46.097656 -53.300781 C 44.976562 -53.300781 44.019531 -52.339844 44.019531 -51.222656 L 44.019531 -47.699219 C 44.019531 -46.578125 43.058594 -45.617188 41.9375 -45.617188 L 13.605469 -45.617188 C 12.484375 -45.617188 11.523438 -44.65625 11.523438 -43.539062 L 11.523438 -40.015625 C 11.523438 -38.894531 10.5625 -37.933594 9.445312 -37.933594 L 8.964844 -37.933594 C 7.84375 -37.933594 6.882812 -36.976562 6.882812 -35.855469 L 6.882812 -32.492188 C 6.882812 -31.371094 5.921875 -30.414062 4.800781 -30.414062 L 4.320312 -30.414062 C 3.203125 -30.414062 2.242188 -29.453125 2.242188 -28.332031 L 2.242188 -17.285156 C 2.242188 -16.167969 3.203125 -15.207031 4.320312 -15.207031 L 4.800781 -15.207031 C 5.921875 -15.207031 6.882812 -14.246094 6.882812 -13.125 L 6.882812 -9.765625 C 6.882812 -8.644531 7.84375 -7.683594 8.964844 -7.683594 L 9.445312 -7.683594 C 10.5625 -7.683594 11.523438 -6.722656 11.523438 -5.601562 L 11.523438 -2.082031 C 11.523438 -0.960938 12.484375 0 13.605469 0 Z M 13.605469 0 "/></g></g></g><g fill="#000000" fill-opacity="1"><g transform="translate(218.089511, 281.407878)"><g><path d="M 20.808594 -17.285156 L 20.808594 -51.222656 C 20.808594 -52.339844 19.847656 -53.300781 18.726562 -53.300781 L 18.246094 -53.300781 C 17.128906 -53.300781 16.167969 -54.261719 16.167969 -55.382812 L 16.167969 -58.902344 C 16.167969 -60.023438 17.128906 -60.984375 18.246094 -60.984375 L 37.296875 -60.984375 C 38.414062 -60.984375 39.375 -60.023438 39.375 -58.902344 L 39.375 -24.96875 C 39.375 -23.851562 40.335938 -22.890625 41.457031 -22.890625 L 41.9375 -22.890625 C 43.058594 -22.890625 44.019531 -21.929688 44.019531 -20.808594 L 44.019531 -17.285156 C 44.019531 -16.167969 43.058594 -15.207031 41.9375 -15.207031 L 22.890625 -15.207031 C 21.769531 -15.207031 20.808594 -16.167969 20.808594 -17.285156 Z M 4.320312 30.414062 L 41.9375 30.414062 C 43.058594 30.414062 44.019531 29.453125 44.019531 28.332031 L 44.019531 24.96875 C 44.019531 23.851562 44.976562 22.890625 46.097656 22.890625 L 51.222656 22.890625 C 52.339844 22.890625 53.300781 21.929688 53.300781 20.808594 L 53.300781 17.285156 C 53.300781 16.167969 54.261719 15.207031 55.382812 15.207031 L 55.863281 15.207031 C 56.984375 15.207031 57.945312 14.246094 57.945312 13.125 L 57.945312 -74.109375 C 57.945312 -75.230469 56.984375 -76.191406 55.863281 -76.191406 L 46.097656 -76.191406 C 44.976562 -76.191406 44.019531 -75.230469 44.019531 -74.109375 L 44.019531 -70.75 C 44.019531 -69.628906 43.058594 -68.667969 41.9375 -68.667969 L 41.457031 -68.667969 C 40.335938 -68.667969 39.375 -69.628906 39.375 -70.75 L 39.375 -74.109375 C 39.375 -75.230469 38.414062 -76.191406 37.296875 -76.191406 L 18.246094 -76.191406 C 17.128906 -76.191406 16.167969 -75.230469 16.167969 -74.109375 L 16.167969 -70.75 C 16.167969 -69.628906 15.207031 -68.667969 14.085938 -68.667969 L 8.964844 -68.667969 C 7.84375 -68.667969 6.882812 -67.707031 6.882812 -66.585938 L 6.882812 -63.066406 C 6.882812 -61.945312 5.921875 -60.984375 4.800781 -60.984375 L 4.320312 -60.984375 C 3.203125 -60.984375 2.242188 -60.023438 2.242188 -58.902344 L 2.242188 -17.285156 C 2.242188 -16.167969 3.203125 -15.207031 4.320312 -15.207031 L 4.800781 -15.207031 C 5.921875 -15.207031 6.882812 -14.246094 6.882812 -13.125 L 6.882812 -9.765625 C 6.882812 -8.644531 7.84375 -7.683594 8.964844 -7.683594 L 9.445312 -7.683594 C 10.5625 -7.683594 11.523438 -6.722656 11.523438 -5.601562 L 11.523438 -2.082031 C 11.523438 -0.960938 12.484375 0 13.605469 0 L 37.296875 0 C 38.414062 0 39.375 -0.960938 39.375 -2.082031 L 39.375 -5.601562 C 39.375 -6.722656 40.335938 -7.683594 41.457031 -7.683594 L 41.9375 -7.683594 C 43.058594 -7.683594 44.019531 -6.722656 44.019531 -5.601562 L 44.019531 5.441406 C 44.019531 6.5625 44.976562 7.523438 46.097656 7.523438 L 46.578125 7.523438 C 47.699219 7.523438 48.660156 8.484375 48.660156 9.605469 L 48.660156 13.125 C 48.660156 14.246094 47.699219 15.207031 46.578125 15.207031 L 4.320312 15.207031 C 3.203125 15.207031 2.242188 16.167969 2.242188 17.285156 L 2.242188 28.332031 C 2.242188 29.453125 3.203125 30.414062 4.320312 30.414062 Z M 4.320312 30.414062 "/></g></g></g><g clip-path="url(#ff804ffb89)"><path fill="#ff3131" d="M 132.332031 112.953125 L 132.332031 151.394531 C 125.082031 156.707031 114.742188 158.257812 105.742188 155.332031 C 103.332031 154.550781 100.929688 153.433594 98.609375 152.347656 C 95.511719 150.90625 92.3125 149.425781 88.882812 148.59375 C 86.785156 148.089844 84.722656 147.867188 82.710938 147.867188 C 75.867188 147.867188 69.613281 150.441406 64.390625 153.261719 L 64.390625 176.675781 C 64.390625 177.585938 63.648438 178.332031 62.734375 178.332031 C 61.824219 178.332031 61.078125 177.585938 61.078125 176.675781 L 61.078125 105.421875 C 61.078125 104.511719 61.824219 103.765625 62.734375 103.765625 C 63.648438 103.765625 64.390625 104.511719 64.390625 105.421875 L 64.390625 114.617188 C 71.1875 110.730469 79.257812 107.253906 88.113281 109.382812 C 91.210938 110.128906 94.128906 111.484375 97.210938 112.917969 C 99.628906 114.046875 102.121094 115.207031 104.714844 116.050781 C 113.921875 119.042969 124.410156 117.800781 132.332031 112.953125 Z M 132.332031 112.953125 " fill-opacity="1" fill-rule="nonzero"/></g></svg>